Coordinates
version=1
nRows=20
nColumns=24
inDegrees=yes

Units are S.I. units (second, meters, Newtons, ...)
If the header above contains a line with 'inDegrees', this indicates whether rotational values are in degrees (yes) or radians (no).

endheader
time	pelvis_tilt	pelvis_list	pelvis_rotation	pelvis_tx	pelvis_ty	pelvis_tz	hip_flexion_r	hip_adduction_r	hip_rotation_r	knee_angle_r	ankle_angle_r	subtalar_angle_r	mtp_angle_r	hip_flexion_l	hip_adduction_l	hip_rotation_l	knee_angle_l	ankle_angle_l	subtalar_angle_l	mtp_angle_l	lumbar_extension	lumbar_bending	lumbar_rotation
1.925000	10.924661	2.044389	-177.981903	0.327904	0.588120	-1.215726	70.364601	-28.104201	-13.203688	-97.150161	33.242674	6.022927	0.000000	74.390136	-30.488647	-6.417959	-95.867656	31.722852	16.872501	0.000000	-11.344790	2.198586	1.001892
1.930000	10.993964	2.025011	-177.993271	0.327755	0.592198	-1.215755	69.886400	-27.965401	-13.440915	-96.339831	32.904675	6.000019	0.000000	73.841213	-30.384661	-6.742278	-95.102152	31.369814	16.808490	0.000000	-11.193903	2.199687	0.994834
1.935000	10.995798	1.992224	-178.019603	0.327557	0.596498	-1.215731	69.343157	-27.835415	-13.674055	-95.507005	32.554248	5.921930	0.000000	73.164851	-30.277642	-7.088584	-94.280807	31.118186	16.735350	0.000000	-11.128250	2.188300	0.979192
1.940000	11.019689	1.993295	-178.075027	0.327272	0.600782	-1.215791	68.792610	-27.643765	-13.921608	-94.670171	32.215329	5.890128	0.000000	72.558936	-30.231836	-7.437009	-93.446209	30.771720	16.625627	0.000000	-11.019631	2.181442	1.068832
1.945000	11.037844	1.960734	-178.083134	0.327133	0.605038	-1.215852	68.244087	-27.493743	-14.141266	-93.816492	31.916261	5.824585	0.000000	71.929996	-30.104537	-7.780774	-92.597414	30.443843	16.508807	0.000000	-10.922601	2.184982	1.024549
1.950000	11.092780	1.934202	-178.061499	0.326991	0.609374	-1.215952	67.705564	-27.353507	-14.373419	-92.934573	31.578458	5.808906	0.000000	71.356889	-29.939809	-8.030704	-91.737318	30.064384	16.539033	0.000000	-10.799901	2.171581	0.923706
1.955000	11.107999	1.936878	-178.077206	0.326776	0.613726	-1.216112	67.123603	-27.163374	-14.598179	-92.065016	31.221565	5.882674	0.000000	70.703894	-29.843287	-8.401627	-90.816308	29.811670	16.387187	0.000000	-10.699565	2.175446	0.952334
1.960000	11.145702	1.914897	-178.089790	0.326457	0.618143	-1.216157	66.547585	-26.993097	-14.857819	-91.152328	30.949630	5.772128	0.000000	70.073067	-29.721365	-8.733060	-89.929505	29.476185	16.349646	0.000000	-10.571581	2.181755	0.909423
1.965000	11.152390	1.911096	-178.141801	0.326232	0.622463	-1.216191	66.001124	-26.788488	-15.048004	-90.295410	30.531135	5.759929	0.000000	69.436312	-29.643245	-9.064282	-89.070700	29.129390	16.253601	0.000000	-10.477506	2.191199	0.958388
1.970000	11.189050	1.883536	-178.147178	0.325979	0.626773	-1.216224	65.453072	-26.638269	-15.314479	-89.388134	30.186520	5.570572	0.000000	68.810015	-29.485494	-9.385017	-88.175683	28.764034	16.121480	0.000000	-10.353577	2.184063	0.936901
1.975000	11.201161	1.861498	-178.182368	0.325656	0.631093	-1.216289	64.873764	-26.450090	-15.525693	-88.482524	29.836589	5.522747	0.000000	68.094816	-29.363947	-9.870827	-87.253287	28.500894	15.816487	0.000000	-10.235726	2.187527	0.939396
1.980000	11.237046	1.817762	-178.193679	0.325280	0.635484	-1.216356	64.309786	-26.282117	-15.728503	-87.553311	29.460661	5.483255	0.000000	67.493648	-29.222283	-10.082949	-86.356341	28.029414	15.988867	0.000000	-10.105642	2.164921	0.872621
1.985000	11.235847	1.822812	-178.221046	0.324986	0.639800	-1.216456	63.713508	-26.080302	-15.978919	-86.642677	29.070400	5.415896	0.000000	66.785294	-29.118082	-10.547857	-85.422969	27.788618	15.726029	0.000000	-10.011599	2.182777	0.894602
1.990000	11.262197	1.763300	-178.223300	0.324652	0.644164	-1.216462	63.170755	-25.951009	-16.179524	-85.737387	28.682910	5.368212	0.000000	66.201924	-28.940487	-10.730183	-84.581813	27.231757	15.831326	0.000000	-9.886156	2.128290	0.854794
1.995000	11.277719	1.783196	-178.251951	0.324302	0.648567	-1.216557	62.570846	-25.730968	-16.441467	-84.799041	28.288875	5.302277	0.000000	65.520230	-28.826860	-11.087534	-83.630435	26.953657	15.660772	0.000000	-9.763679	2.153108	0.891122
2.000000	11.292368	1.768872	-178.276531	0.323939	0.652883	-1.216695	61.985350	-25.522597	-16.597247	-83.874761	27.909328	5.427831	0.000000	64.835920	-28.705944	-11.491626	-82.709509	26.675957	15.521418	0.000000	-9.647989	2.128413	0.891570
2.005000	11.321380	1.740768	-178.308307	0.323563	0.657187	-1.216778	61.415338	-25.330403	-16.807700	-82.919156	27.514799	5.406392	0.000000	64.224224	-28.570524	-11.727089	-81.779243	26.217218	15.594605	0.000000	-9.521124	2.075797	0.948364
2.010000	11.323731	1.714431	-178.329090	0.323169	0.661476	-1.216826	60.811453	-25.150990	-17.055556	-81.947486	27.146587	5.270526	0.000000	63.532911	-28.419366	-12.057049	-80.783335	25.922692	15.545988	0.000000	-9.404897	2.094404	0.862651
2.015000	11.312613	1.710219	-178.369479	0.322709	0.665738	-1.216939	60.202418	-24.935248	-17.265570	-81.014980	26.803684	5.253189	0.000000	62.842324	-28.299520	-12.394777	-79.860952	25.592544	15.395486	0.000000	-9.292779	2.090152	0.896569
2.020000	11.325074	1.708351	-178.426941	0.322173	0.669959	-1.216897	59.619081	-24.728667	-17.488313	-80.075612	26.436834	5.205505	0.000000	62.161301	-28.178759	-12.769167	-78.957753	25.246214	15.174975	0.000000	-9.153503	2.077264	1.002332
